<?xml version="1.0" encoding="UTF-8" standalone="no"?>
<!-- Created with Inkscape (http://www.inkscape.org/) -->

<svg
   width="500"
   height="140"
   viewBox="0 0 132.29166 37.041666"
   version="1.1"
   id="svg1"
   xml:space="preserve"
   inkscape:version="1.4.3 (0d15f75, 2025-12-25)"
   sodipodi:docname="GravitasMerge.svg"
   xmlns:inkscape="http://www.inkscape.org/namespaces/inkscape"
   xmlns:sodipodi="http://sodipodi.sourceforge.net/DTD/sodipodi-0.dtd"
   xmlns="http://www.w3.org/2000/svg"
   xmlns:svg="http://www.w3.org/2000/svg"><sodipodi:namedview
     id="namedview1"
     pagecolor="#ffffff"
     bordercolor="#999999"
     borderopacity="1"
     inkscape:showpageshadow="2"
     inkscape:pageopacity="0"
     inkscape:pagecheckerboard="true"
     inkscape:deskcolor="#d1d1d1"
     inkscape:document-units="mm"
     inkscape:zoom="2.1442755"
     inkscape:cx="220.58732"
     inkscape:cy="90.240269"
     inkscape:window-width="1920"
     inkscape:window-height="1111"
     inkscape:window-x="-9"
     inkscape:window-y="-9"
     inkscape:window-maximized="1"
     inkscape:current-layer="layer1" /><defs
     id="defs1"><inkscape:path-effect
       effect="perspective-envelope"
       up_left_point="0,0"
       up_right_point="400,0"
       down_left_point="40,50"
       down_right_point="360,50"
       id="path-effect2"
       is_visible="true"
       lpeversion="1"
       deform_type="perspective"
       horizontal_mirror="false"
       vertical_mirror="false"
       overflow_perspective="false" /><inkscape:path-effect
       effect="perspective-envelope"
       up_left_point="40,0"
       up_right_point="360,0"
       down_left_point="0,50"
       down_right_point="400,50"
       id="path-effect1"
       is_visible="true"
       lpeversion="1"
       deform_type="perspective"
       horizontal_mirror="false"
       vertical_mirror="false"
       overflow_perspective="false" /></defs><g
     inkscape:label="Layer 1"
     inkscape:groupmode="layer"
     id="layer1"><g
       id="svgGroup"
       stroke-linecap="round"
       fill-rule="nonzero"
       font-size="12px"
       stroke="#ffd26e"
       stroke-width="0.1"
       fill="#ffd26e"
       style="fill:#ffd26e;stroke:#ffcc70;stroke-width:0.1;stroke-opacity:1"
       transform="matrix(0.36597086,0,0,0.36939327,-6.3699272,0.28308256)"
       inkscape:path-effect="#path-effect1"><path
         d="m 18.181818,27.272727 24.868748,-14.50677 h 13.263333 l -23.96443,14.50677 1.911508,10.822511 h 17.316017 l 8.284075,-5.537098 -1.537574,-5.285413 h -9.445101 l 15.604949,-9.881423 h 6.775833 L 76.774388,32.55814 51.948052,50 H 20.779221 Z M 91.774892,8.3333333 H 50.649351 L 64.935065,0 h 39.480515 z"
         id="0"
         inkscape:original-d="M 0,31.5 15.75,15.75 H 31.5 L 15.75,31.5 26.25,42 h 18.375 l 5.25,-5.25 -5.25,-5.25 h -10.5 L 44.625,21 H 52.5 L 68.25,36.75 52.5,52.5 H 21 Z m 70.875,-21 H 21 L 31.5,0 h 49.875 z"
         style="stroke:#ffcc70;stroke-opacity:1" /><path
         d="M 89.61039,8.3333333 86.011132,0 h 30.871988 l 7.958,12.765957 -9.32806,7.014263 h -13.70059 l 9.76531,-7.014263 -2.48687,-4.4326237 z M 94.881589,35.294118 99.606012,24.719101 H 113.61448 L 127.27273,50 H 111.68831 L 104.66005,35.294118 Z M 83.116883,50 H 70.12987 L 89.47223,12.765957 h 11.05278 z"
         id="1"
         inkscape:original-d="M 68.25,10.5 58.125,0 h 39 L 112.875,15.75 105,23.625 H 89.25 l 7.875,-7.875 -5.25,-5.25 z m 21,28.875 v -10.5 H 105 L 128.625,52.5 h -15.75 L 99.75,39.375 Z M 84,52.5 H 70.875 V 15.75 H 84 Z"
         style="stroke:#ffcc70;stroke-opacity:1" /><path
         d="M 139.39394,8.3333333 H 126.40693 L 121.21707,0 h 24.75696 l 38.44155,50 H 168.83117 Z M 114.28571,50 127.05167,12.765957 h 11.05278 l -3.47728,11.953144 h 11.67372 l 7.25144,10.575017 H 131.5508 L 127.27273,50 Z"
         id="2"
         inkscape:original-d="m 128.625,10.5 h -15.75 L 102.6,0 h 31.275 l 52.5,52.5 h -15.75 z M 115.5,52.5 V 15.75 h 13.125 v 13.125 h 13.125 l 10.5,10.5 H 128.625 V 52.5 Z"
         style="stroke:#ffcc70;stroke-opacity:1" /><path
         d="M 179.22078,0 177.41389,17.391304 190.33525,32.55814 204.51722,17.391304 204.15584,0 h 10.38961 L 215.98402,19.78022 189.61039,50 165.74854,19.78022 168.83117,0 Z"
         id="3"
         inkscape:original-d="M 175.875,0 V 21 L 191.625,36.75 207.375,21 V 0 H 220.5 V 23.625 L 191.625,52.5 162.75,23.625 V 0 Z"
         style="stroke:#ffcc70;stroke-opacity:1" /><path
         d="M 228.73722,12.765957 233.76623,50 H 220.77922 L 217.68444,12.765957 Z M 227.01299,0 228.13853,8.3333333 H 217.31602 L 216.62338,0 Z"
         id="4"
         inkscape:original-d="M 236.25,15.75 V 52.5 H 223.125 V 15.75 Z M 236.25,0 V 10.5 H 223.125 V 0 Z"
         style="stroke:#ffcc70;stroke-opacity:1" /><path
         d="m 272.72727,0 -5.6277,8.3333333 H 225.97403 L 216.86085,0 Z M 253.05333,12.765957 262.33766,50 h -12.98701 l -7.3501,-37.234043 z"
         id="5"
         inkscape:original-d="M 294,0 283.5,10.5 H 233.625 L 223.425,0 Z M 265.125,15.75 V 52.5 H 252 V 15.75 Z"
         style="stroke:#ffcc70;stroke-opacity:1" /><path
         d="M 277.92208,8.3333333 H 264.93506 L 254.20408,0 h 24.75696 l 71.68831,50 H 335.06494 Z M 280.51948,50 268.52722,12.765957 h 11.05277 l 4.47079,11.953144 h 11.67372 l 14.28314,10.575017 H 288.00611 L 293.50649,50 Z"
         id="6"
         inkscape:original-d="m 296.625,10.5 h -15.75 L 270.6,0 h 31.275 l 52.5,52.5 h -15.75 z M 283.5,52.5 V 15.75 h 13.125 v 13.125 h 13.125 l 10.5,10.5 H 296.625 V 52.5 Z"
         style="stroke:#ffcc70;stroke-opacity:1" /><path
         d="M 358.00866,8.3333333 H 312.55411 L 316.36364,0 H 360 Z m -21.0547,18.9393937 -22.00508,-14.50677 h 13.26333 l 7.30445,4.625347 h 13.55166 l 24.89725,15.166836 h -14.49713 l -8.34683,-5.285413 z m 1.57418,10.822511 h 39.57947 L 376.62338,50 h -41.55844 z"
         id="7"
         inkscape:original-d="M 393.75,10.5 H 338.625 L 349.125,0 h 55.125 z m -39.375,21 -15.75,-15.75 h 15.75 l 5.25,5.25 h 15.75 l 15.75,15.75 h -15.75 l -5.25,-5.25 z m -5.25,10.5 h 42 l -10.5,10.5 h -42 z"
         style="stroke:#ffcc70;stroke-opacity:1" /></g><g
       id="svgGroup-4"
       stroke-linecap="round"
       fill-rule="nonzero"
       font-size="12px"
       stroke="#ffd26e"
       stroke-width="0.1"
       fill="#ffd26e"
       style="fill:#fff0cc;fill-opacity:1;stroke:#fff2cc;stroke-width:0.1;stroke-opacity:1"
       transform="matrix(0.32450007,0,0,0.32753466,1.245867,20.383876)"
       inkscape:path-effect="#path-effect2"><path
         d="M 51.328904,11.904762 H 22.259136 L 0,0 H 50.678295 L 80.025239,17.44186 96.821705,50 H 83.255814 L 65.81128,20.114943 Z m 35.529715,0 H 77.168697 L 57.46124,0 H 87.984496 L 114.72868,17.44186 126.66667,50 H 113.10078 L 100.11583,20.114943 Z M 45.321796,17.44186 66.976744,50 H 53.410853 L 29.547503,17.44186 Z"
         id="0-5"
         inkscape:original-d="M 33.975,10.5 H 10.35 L 0,0 h 39.225 l 15.75,15.75 V 52.5 H 41.85 V 18.375 Z m 28.875,0 H 54.975 L 44.475,0 H 68.1 L 83.85,15.75 V 52.5 H 70.725 V 18.375 Z M 26.1,15.75 V 52.5 H 12.975 V 15.75 Z"
         style="fill:#fff0cc;fill-opacity:1;stroke:#fff2cc;stroke-opacity:1" /><path
         d="m 129.37984,50 -11.4963,-32.55814 h 15.77429 l 1.50778,5.285413 h 27.74841 l -10.18399,9.881423 H 137.9845 l 2.58398,9.057971 h 25.43604 L 178.21705,50 Z M 177.2979,11.904762 H 112.69841 L 95.251938,0 h 94.476742 z"
         id="1-5"
         inkscape:original-d="M 86.475,52.5 V 15.75 H 99.6 V 21 h 23.625 l -10.5,10.5 H 99.6 V 42 h 23.625 l 10.5,10.5 z m 49.875,-42 H 83.85 L 73.725,0 h 73.125 z"
         style="fill:#fff0cc;fill-opacity:1;stroke:#fff2cc;stroke-opacity:1" /><path
         d="M 203.13769,11.904762 H 174.06792 L 159.78682,0 h 50.2907 l 18.22607,17.44186 -10.0996,7.839039 H 199.9129 l 9.46154,-7.839039 z M 217.8039,30.21978 240.62016,50 H 224.34109 L 211.34231,39.473684 H 199.9184 l -0.004,-9.253904 z M 193.60014,17.44186 194.49612,50 h -13.56589 l -3.10438,-32.55814 z"
         id="2-1"
         inkscape:original-d="M 157.35,10.5 H 133.725 L 123.675,0 H 162.6 l 15.75,15.75 -7.875,7.875 h -15.75 L 162.6,15.75 Z M 170.475,28.875 194.1,52.5 H 178.35 L 165.225,39.375 h -10.5 v -10.5 z m -21,-13.125 V 52.5 H 136.35 V 15.75 Z"
         style="fill:#fff0cc;fill-opacity:1;stroke:#fff2cc;stroke-opacity:1" /><path
         d="M 226.4577,32.608696 247.23274,17.44186 h 18.92915 l -22.00955,15.166836 9.46523,9.057971 h 19.78359 l 7.33445,-4.432624 -4.14309,-4.625347 H 264.79609 L 280.074,22.727273 h 9.24947 L 300.94013,37.234043 278.60465,50 h -32.55814 z m 89.72908,-20.703934 h -61.3695 L 271.12403,0 h 64.43799 z"
         id="3-7"
         inkscape:original-d="M 178.35,31.5 194.1,15.75 h 15.75 L 194.1,31.5 204.6,42 h 18.375 l 5.25,-5.25 -5.25,-5.25 h -10.5 l 10.5,-10.5 h 7.875 L 246.6,36.75 230.85,52.5 h -31.5 z m 70.875,-21 H 199.35 L 209.85,0 h 49.875 z"
         style="fill:#fff0cc;fill-opacity:1;stroke:#fff2cc;stroke-opacity:1" /><path
         d="m 297.5969,50 15.88787,-32.55814 h 15.77429 l -2.93771,5.285413 h 27.74842 l -18.49512,9.881423 h -14.74553 l -5.03455,9.057971 h 25.43605 L 346.43411,50 Z M 377.55629,11.904762 H 312.95681 L 305.52326,0 H 400 Z"
         id="4-1"
         inkscape:original-d="M 249.225,52.5 V 15.75 H 262.35 V 21 h 23.625 l -10.5,10.5 H 262.35 V 42 h 23.625 l 10.5,10.5 z M 299.1,10.5 H 246.6 L 236.475,0 H 309.6 Z"
         style="fill:#fff0cc;fill-opacity:1;stroke:#fff2cc;stroke-opacity:1" /></g></g></svg>
